<?xml version="1.0" encoding="UTF-8"?>
<svg id="Layer_2" data-name="Layer 2" xmlns="http://www.w3.org/2000/svg" viewBox="0 0 251.11 111.25">
  <defs>
    <style>
      .cls-1 {
        fill: #fef1f0;
        stroke-width: 0px;
      }
    </style>
  </defs>
  <g id="Layer_1-2" data-name="Layer 1">
    <g>
      <g>
        <rect class="cls-1" x="103.13" y="8.3" width="11.49" height="60.39" rx="2.62" ry="2.62" transform="translate(6.35 91.63) rotate(-46.87)"/>
        <rect class="cls-1" x="130.97" y="24.8" width="39.27" height="10.85" rx="2.11" ry="2.11" transform="translate(25.58 119.47) rotate(-46.87)"/>
        <path class="cls-1" d="m123.28,32.43h0s1.68,1.58,1.68,1.58c.89.83,2.28.79,3.11-.1l24.17-25.8c.83-.89.79-2.28-.1-3.11l-4.7-4.4c-.89-.83-2.28-.79-3.11.1l-18.26,19.49L105.33.76c-.88-.82-2.26-.78-3.08.1l-4.44,4.74c-.82.88-.78,2.26.1,3.08l25.37,23.76Z"/>
      </g>
      <g>
        <polygon class="cls-1" points="7 98.81 19.39 98.81 19.39 93.81 7 93.81 7 87.33 22.41 87.33 22.41 82.23 0 82.23 0 110.82 22.63 110.82 22.63 105.54 7 105.54 7 98.81"/>
        <path class="cls-1" d="m42.95,82.23h-12.77v28.59h11.43c5.37,0,9.57-1.37,12.49-4.08,2.92-2.71,4.4-6.14,4.4-10.17s-1.44-7.47-4.27-10.21c-2.83-2.74-6.62-4.13-11.27-4.13Zm8.04,14.06c0,3.14-.89,5.52-2.64,7.09-1.77,1.58-3.95,2.38-6.5,2.38h-4.5v-18.61h5.21c2.56,0,4.55.86,6.1,2.63,1.54,1.76,2.33,3.96,2.33,6.51Z"/>
        <path class="cls-1" d="m84.7,100.46c0,2.14-.5,3.58-1.48,4.3-1.03.75-2.44,1.13-4.19,1.13-1.53,0-2.88-.36-4.02-1.07-1.06-.66-1.6-2.13-1.6-4.36v-18.23h-7.12v18.59c0,2.26.41,4.15,1.21,5.63.81,1.5,2.16,2.69,4,3.54,1.81.83,4.13,1.26,6.9,1.26s5.12-.49,7.04-1.46c1.95-.98,3.3-2.18,3.99-3.57.68-1.36,1.03-3.3,1.03-5.76v-18.23h-5.76v18.23Z"/>
        <polygon class="cls-1" points="110.78 102.42 103.49 82.23 96.08 82.23 106.72 110.82 113.51 110.82 124.3 82.23 118.23 82.23 110.78 102.42"/>
        <polygon class="cls-1" points="137.4 98.81 149.79 98.81 149.79 93.81 137.4 93.81 137.4 87.33 152.82 87.33 152.82 82.23 130.4 82.23 130.4 110.82 153.04 110.82 153.04 105.54 137.4 105.54 137.4 98.81"/>
        <path class="cls-1" d="m187.87,90.82c0-2.53-1.02-4.63-3.02-6.22-1.97-1.57-5.05-2.36-9.17-2.36h-14.94v28.59h7v-11.34h7.62l5.17,11.34h7.46l-5.93-12.4c3.85-1.44,5.81-4,5.81-7.6Zm-7.24-.06c0,1.16-.45,2.04-1.38,2.71-.97.69-2.49,1.04-4.54,1.04h-6.96v-7.31h7.45c1.75,0,3.12.35,4.07,1.03.91.65,1.35,1.48,1.35,2.54Z"/>
        <path class="cls-1" d="m211.73,93.74l-5.66-1.17c-2.81-.58-4.23-1.53-4.23-2.82,0-.83.41-1.5,1.25-2.05.9-.59,2.24-.89,4.01-.89,3.03,0,4.89.92,5.69,2.83l.16.38,6.66-1.37-.17-.53c-.66-2.03-2.2-3.61-4.57-4.71-2.31-1.06-4.96-1.6-7.88-1.6-3.53,0-6.48.78-8.77,2.32-2.35,1.58-3.54,3.72-3.54,6.35,0,1.32.34,2.58,1.01,3.75.67,1.16,1.57,2.08,2.68,2.72,1.08.62,2.76,1.18,4.97,1.66l6.37,1.38c1.97.42,2.75.96,3.06,1.33.45.55.67,1.14.67,1.78,0,.86-.48,1.57-1.48,2.18-1.06.65-2.63.98-4.65.98-4.45,0-6.92-1.22-7.56-3.73l-.11-.45-6.86,1.21.18.55c.85,2.55,2.6,4.45,5.2,5.65,2.53,1.17,5.52,1.76,8.88,1.76,4,0,7.31-.81,9.84-2.41,2.61-1.65,3.93-3.94,3.93-6.82,0-1.8-.63-3.46-1.87-4.94-1.26-1.5-3.61-2.59-7.18-3.33Z"/>
        <polygon class="cls-1" points="235.48 105.54 235.48 98.81 247.87 98.81 247.87 93.81 235.48 93.81 235.48 87.33 250.89 87.33 250.89 82.23 228.48 82.23 228.48 110.82 251.11 110.82 251.11 105.54 235.48 105.54"/>
      </g>
    </g>
  </g>
</svg>